<svg width="25" height="24" viewBox="0 0 25 24" fill="none" xmlns="http://www.w3.org/2000/svg">
<path fill-rule="evenodd" clip-rule="evenodd" d="M16.4211 3.87725C17.1999 2.87177 17.7904 1.45063 17.5768 0C16.3038 0.0884702 14.8158 0.902958 13.9476 1.9646C13.1561 2.92654 12.5056 4.35751 12.7597 5.74636C14.1513 5.78988 15.5877 4.95574 16.4211 3.87725ZM23.3 17.5226C22.7431 18.764 22.475 19.3188 21.7575 20.4184C20.7567 21.9532 19.3455 23.8644 17.5951 23.8784C16.0414 23.8954 15.6408 22.8604 13.5316 22.873C11.4224 22.8842 10.9827 23.8981 9.42631 23.8826C7.67727 23.8673 6.34001 22.1428 5.33916 20.6078C2.53902 16.3192 2.24449 11.2848 3.9712 8.60682C5.19958 6.70542 7.13706 5.59321 8.95729 5.59321C10.8096 5.59321 11.9752 6.61554 13.5093 6.61554C14.9973 6.61554 15.9032 5.5904 18.0459 5.5904C19.668 5.5904 21.3862 6.47933 22.609 8.01281C18.6001 10.2232 19.2492 15.9822 23.3 17.5226Z" fill="#121316"/>
</svg>
