<svg width="24" height="24" viewBox="0 0 24 24" fill="none" xmlns="http://www.w3.org/2000/svg">
<path d="M22.5434 12.2071C22.5434 11.3167 22.4692 10.6736 22.3125 10.0059H12.2133V13.9961H18.1409C18.0289 14.6971 17.7761 15.3683 17.3978 15.969C17.0195 16.5698 16.5235 17.0877 15.9397 17.4917L15.9232 17.6236L19.1137 20.0969L19.3363 20.1216C21.3727 18.2419 22.5434 15.4801 22.5434 12.2071Z" fill="#4285F4"/>
<path d="M12.2133 22.7265C15.1152 22.7265 17.5556 21.7701 19.3363 20.1213L15.9397 17.4831C15.0328 18.1262 13.8127 18.5631 12.2133 18.5631C10.8523 18.5559 9.52825 18.1204 8.42876 17.3183C7.32928 16.5163 6.51023 15.3884 6.08777 14.0947L5.9641 14.103L2.64166 16.6752L2.59219 16.7988C4.36471 20.3109 8.00044 22.7182 12.2133 22.7182" fill="#34A853"/>
<path d="M6.08982 14.094C5.61521 12.7138 5.60941 11.2155 6.07333 9.83171V9.69156L2.70966 7.07812L2.59424 7.12759C1.84081 8.62806 1.44844 10.2838 1.44844 11.9629C1.44844 13.6419 1.84081 15.2977 2.59424 16.7981L6.08982 14.094Z" fill="#FBBC05"/>
<path d="M12.2133 5.36355C14.2331 5.36355 15.5934 6.23745 16.3684 6.96294L19.4188 4.00325C17.5391 2.27195 15.1152 1.2002 12.2133 1.2002C8.00044 1.2002 4.36471 3.61577 2.59219 7.13607L6.07128 9.83195C6.49853 8.5396 7.31995 7.41359 8.42012 6.61212C9.52029 5.81065 10.8439 5.37402 12.205 5.36355" fill="#EB4335"/>
</svg>
