<svg width="194" height="32" viewBox="0 0 194 32" fill="none" xmlns="http://www.w3.org/2000/svg">
<path d="M56.4582 18.1169C56.4582 20.1941 54.7743 21.878 52.6971 21.878H47.0572V12.0089H52.6971C54.7743 12.0089 56.4582 13.6928 56.4582 15.77V18.1169ZM61.1352 16.0002C60.9271 11.5197 57.2672 7.94035 52.7502 7.86434L42.3512 7.86133V32H47.0572V26.0225H52.7502C57.2702 25.9469 60.9323 22.3623 61.1355 17.8776C61.1416 17.7474 61.1641 17.3707 61.1641 16.9421C61.1641 16.5451 61.1416 16.1335 61.1352 16.0002Z" fill="black"/>
<path fill-rule="evenodd" clip-rule="evenodd" d="M69.164 2.82335C69.164 4.38273 67.9 5.64708 66.3406 5.64708C64.7813 5.64708 63.5173 4.38273 63.5173 2.82335C63.5173 1.26398 64.7813 0 66.3406 0C67.9 0 69.164 1.26398 69.164 2.82335ZM68.6936 26.0247H63.9876V7.86312H68.6936V26.0247Z" fill="black"/>
<path d="M82.5013 7.86381H72.4591V26.0231H77.1651V12.0091H84.8566V26.0254H89.5625V14.9246C89.5625 11.0251 86.4009 7.86381 82.5013 7.86381Z" fill="black"/>
<path d="M97.1599 15.0963C97.4335 12.6064 99.0681 11.2833 101.622 11.2171C104.18 11.2833 105.739 12.5258 105.916 15.0963H97.1599ZM110.667 16.9406C110.667 16.3012 110.624 15.6849 110.535 15.0963C109.845 10.3049 106.402 7.29871 101.525 7.29871C96.0506 7.29871 92.3855 11.0884 92.3855 16.9406C92.3855 22.7927 96.0506 26.582 101.525 26.582C105.412 26.582 108.593 24.7728 109.988 21.5716L105.844 20.0668C105.185 21.6966 103.781 22.4574 101.622 22.4574C98.9944 22.3912 97.4561 20.9195 97.2006 18.3404H110.593C110.644 17.8881 110.667 17.42 110.667 16.9406Z" fill="black"/>
<path d="M122.662 22.0672C119.352 21.9931 117.804 20.3167 117.804 16.8469C117.804 13.4004 119.336 11.6848 122.662 11.6069C124.81 11.6574 126.206 12.3904 126.931 13.829L131.286 12.2463C129.785 9.14256 126.685 7.29871 122.658 7.29871C116.884 7.29871 113.02 11.0884 113.02 16.9402C113.02 22.7923 116.884 26.582 122.658 26.582C126.685 26.582 129.785 24.7382 131.286 21.6345L126.849 20.0205C126.097 21.3538 124.721 22.0206 122.662 22.0672Z" fill="black"/>
<path d="M142.494 22.0676C139.186 21.9927 137.637 20.3171 137.637 16.8465C137.637 13.3985 139.168 11.6826 142.494 11.6062C145.82 11.6826 147.352 13.3985 147.352 16.8465C147.352 20.3171 145.802 21.9927 142.494 22.0676ZM142.492 7.29833C136.718 7.29833 132.855 11.088 132.855 16.9402C132.855 22.7923 136.718 26.582 142.492 26.582C148.267 26.582 152.13 22.7923 152.13 16.9402C152.13 11.088 148.267 7.29833 142.492 7.29833Z" fill="black"/>
<path d="M164.996 7.85893H154.954V26.0182H159.66V12.0042H167.352V26.0205H172.058V14.9201C172.058 11.0202 168.896 7.85893 164.996 7.85893Z" fill="black"/>
<path d="M179.655 15.0963C179.929 12.6064 181.563 11.2833 184.117 11.2171C186.675 11.2833 188.234 12.5258 188.411 15.0963H179.655ZM193.162 16.9406C193.162 16.3012 193.12 15.6849 193.03 15.0963C192.34 10.3049 188.897 7.29871 184.02 7.29871C178.546 7.29871 174.881 11.0884 174.881 16.9406C174.881 22.7927 178.546 26.582 184.02 26.582C187.907 26.582 191.088 24.7728 192.484 21.5716L188.339 20.0668C187.68 21.6966 186.276 22.4574 184.117 22.4574C181.49 22.3912 179.951 20.9195 179.696 18.3404H193.088C193.139 17.8881 193.162 17.42 193.162 16.9406Z" fill="black"/>
<path d="M5.26025 5.31703L0.83011 13.62C0.277331 14.6593 0 15.7995 0 16.9416C0 18.0836 0.277331 19.2242 0.83011 20.2632L5.26025 28.5661C6.07681 30.0999 7.67382 31.0576 9.41193 31.0576H14.1179V28.7054H14.116C13.2479 28.7054 12.4494 28.2275 12.0411 27.4606L7.61248 19.1561C7.2422 18.4637 7.05782 17.7036 7.05782 16.9416C7.05782 16.1796 7.2422 15.4195 7.61248 14.7271L12.0411 6.42259C12.4494 5.6557 13.2479 5.17742 14.116 5.17742H14.1179V2.8252H9.41193C7.67382 2.8252 6.07681 3.78325 5.26025 5.31703Z" fill="black"/>
<path d="M32.1089 13.62L27.6788 5.31703C26.8618 3.78325 25.2652 2.8252 23.5271 2.8252H18.8211V5.17742H18.823C19.6911 5.17742 20.4896 5.6557 20.8979 6.42259L25.3265 14.7271C25.6964 15.4195 25.8808 16.1796 25.8808 16.9416C25.8808 17.7036 25.6964 18.4637 25.3265 19.1561L20.8979 27.4606C20.4896 28.2275 19.6911 28.7054 18.823 28.7054H18.8211V31.0576H23.5271C25.2652 31.0576 26.8618 30.0999 27.6788 28.5661L32.1089 20.2632C32.6617 19.2242 32.939 18.0836 32.939 16.9416C32.939 15.7995 32.6617 14.6593 32.1089 13.62Z" fill="black"/>
</svg>
